<mxfile host="app.diagrams.net" modified="2023-06-01T23:26:18.286Z" agent="Mozilla/5.0 (Macintosh; Intel Mac OS X 10_15_7) AppleWebKit/537.36 (KHTML, like Gecko) Chrome/113.0.0.0 Safari/537.36" etag="Ls3Pz6QluhyGU28Oj_Zh" version="21.3.2" type="github">
  <diagram id="C5RBs43oDa-KdzZeNtuy" name="Page-1">
    <mxGraphModel dx="1284" dy="788" grid="1" gridSize="10" guides="1" tooltips="1" connect="1" arrows="1" fold="1" page="1" pageScale="1" pageWidth="1169" pageHeight="1654" math="0" shadow="0">
      <root>
        <mxCell id="WIyWlLk6GJQsqaUBKTNV-0" />
        <mxCell id="WIyWlLk6GJQsqaUBKTNV-1" parent="WIyWlLk6GJQsqaUBKTNV-0" />
        <mxCell id="9t7XOVwsSKRrDLuDX60Q-0" style="edgeStyle=orthogonalEdgeStyle;rounded=0;orthogonalLoop=1;jettySize=auto;html=1;exitX=1;exitY=0.5;exitDx=0;exitDy=0;" edge="1" parent="WIyWlLk6GJQsqaUBKTNV-1" source="WIyWlLk6GJQsqaUBKTNV-3" target="ld2Q0Rl9ifkete67yDMp-26">
          <mxGeometry relative="1" as="geometry" />
        </mxCell>
        <mxCell id="WIyWlLk6GJQsqaUBKTNV-3" value="Ejecución de &lt;b&gt;Codigo.mbs&lt;/b&gt;" style="rounded=1;whiteSpace=wrap;html=1;fontSize=12;glass=0;strokeWidth=1;shadow=0;fillColor=#d5e8d4;strokeColor=#82b366;" parent="WIyWlLk6GJQsqaUBKTNV-1" vertex="1">
          <mxGeometry x="280" y="275" width="120" height="40" as="geometry" />
        </mxCell>
        <mxCell id="B-otEjHW6JDtHvaltUW4-0" value="&lt;b&gt;Movimiento a Estación No.1&lt;/b&gt;&lt;br&gt;Proceso de carga de Materia Prima&lt;br&gt;&lt;b&gt;Tiempo: 45s&lt;/b&gt;" style="whiteSpace=wrap;html=1;rounded=1;glass=0;strokeWidth=1;shadow=0;fillColor=#ffe6cc;strokeColor=#d79b00;" parent="WIyWlLk6GJQsqaUBKTNV-1" vertex="1">
          <mxGeometry x="477.5" y="390" width="195" height="80" as="geometry" />
        </mxCell>
        <mxCell id="ld2Q0Rl9ifkete67yDMp-13" style="edgeStyle=orthogonalEdgeStyle;rounded=0;orthogonalLoop=1;jettySize=auto;html=1;entryX=0.5;entryY=0;entryDx=0;entryDy=0;" parent="WIyWlLk6GJQsqaUBKTNV-1" source="B-otEjHW6JDtHvaltUW4-10" target="ld2Q0Rl9ifkete67yDMp-11" edge="1">
          <mxGeometry relative="1" as="geometry" />
        </mxCell>
        <mxCell id="B-otEjHW6JDtHvaltUW4-10" value="Se crea la parte según el código en &lt;b&gt;CreatePart&lt;/b&gt;." style="whiteSpace=wrap;html=1;rounded=1;glass=0;strokeWidth=1;shadow=0;fillColor=#fff2cc;strokeColor=#d6b656;" parent="WIyWlLk6GJQsqaUBKTNV-1" vertex="1">
          <mxGeometry x="80" y="685" width="160" height="80" as="geometry" />
        </mxCell>
        <mxCell id="ld2Q0Rl9ifkete67yDMp-24" style="edgeStyle=orthogonalEdgeStyle;rounded=0;orthogonalLoop=1;jettySize=auto;html=1;exitX=0.5;exitY=1;exitDx=0;exitDy=0;" parent="WIyWlLk6GJQsqaUBKTNV-1" source="B-otEjHW6JDtHvaltUW4-16" target="ld2Q0Rl9ifkete67yDMp-23" edge="1">
          <mxGeometry relative="1" as="geometry" />
        </mxCell>
        <mxCell id="B-otEjHW6JDtHvaltUW4-16" value="Se inicia la secuencia para el ensamble de la pieza. &lt;br&gt;Toma la pieza rectangular (&lt;b&gt;P3&lt;/b&gt;) y la coloca en la posición 3 (&lt;b&gt;P6&lt;/b&gt;) utilizando una posición intermedia (&lt;b&gt;PMWAIT1&lt;/b&gt;)" style="whiteSpace=wrap;html=1;rounded=1;glass=0;strokeWidth=1;shadow=0;fillColor=#dae8fc;strokeColor=#6c8ebf;" parent="WIyWlLk6GJQsqaUBKTNV-1" vertex="1">
          <mxGeometry x="650" y="555" width="190" height="90" as="geometry" />
        </mxCell>
        <mxCell id="L5HEDUzoinoEtIV4rbIi-0" value="&lt;b style=&quot;font-size: 22px;&quot;&gt;DIAGRAMA DE PROCESO&lt;br&gt;&lt;/b&gt;&lt;font style=&quot;font-size: 15px;&quot;&gt;&lt;span style=&quot;font-size: 15px;&quot;&gt;SISTEMAS DE MANUFACTURA FLEXIBLE&lt;br&gt;&lt;/span&gt;&lt;br&gt;&lt;span style=&quot;font-size: 15px;&quot;&gt;&lt;b&gt;Elaborado por&lt;/b&gt;: Fernando Gómez y Emilio Guzmán&lt;/span&gt;&lt;br&gt;&lt;span style=&quot;font-size: 15px;&quot;&gt;&lt;b&gt;Herramienta&lt;/b&gt;: Roboteq AVG Simulator&lt;/span&gt;&lt;br&gt;&lt;span style=&quot;font-size: 15px;&quot;&gt;&lt;b&gt;Nombre&lt;/b&gt;: &#39;Codigo.mbs&#39;&lt;/span&gt;&lt;br&gt;&lt;font style=&quot;font-size: 15px;&quot;&gt;&lt;b&gt;Ubicación&lt;/b&gt;:&amp;nbsp;https://github.com/fgomez1211/Personal/blob/main/MIR/6T/Manufactura%20Flexible/Laboratorio%202/Codigo.mbs&lt;br&gt;&lt;/font&gt;&lt;br&gt;&lt;/font&gt;" style="text;html=1;strokeColor=none;fillColor=none;align=left;verticalAlign=middle;whiteSpace=wrap;rounded=0;" parent="WIyWlLk6GJQsqaUBKTNV-1" vertex="1">
          <mxGeometry x="40" y="30" width="860" height="190" as="geometry" />
        </mxCell>
        <mxCell id="ld2Q0Rl9ifkete67yDMp-1" style="edgeStyle=orthogonalEdgeStyle;rounded=0;orthogonalLoop=1;jettySize=auto;html=1;entryX=1;entryY=0.5;entryDx=0;entryDy=0;" parent="WIyWlLk6GJQsqaUBKTNV-1" source="ld2Q0Rl9ifkete67yDMp-0" target="ld2Q0Rl9ifkete67yDMp-26" edge="1">
          <mxGeometry relative="1" as="geometry" />
        </mxCell>
        <mxCell id="ld2Q0Rl9ifkete67yDMp-0" value="&lt;b&gt;Pista_1.trkx&lt;/b&gt;" style="whiteSpace=wrap;html=1;rounded=1;glass=0;strokeWidth=1;shadow=0;fillColor=#ffe6cc;strokeColor=#d79b00;" parent="WIyWlLk6GJQsqaUBKTNV-1" vertex="1">
          <mxGeometry x="750" y="265" width="150" height="60" as="geometry" />
        </mxCell>
        <mxCell id="ld2Q0Rl9ifkete67yDMp-11" value="&lt;b&gt;Ejecución de ULMILL&lt;br&gt;&lt;/b&gt;Se encarga de hacer una descarga de la pieza en la máquina CNC. Lo coloca en su posición original" style="whiteSpace=wrap;html=1;rounded=1;glass=0;strokeWidth=1;shadow=0;fillColor=#ffe6cc;strokeColor=#d79b00;" parent="WIyWlLk6GJQsqaUBKTNV-1" vertex="1">
          <mxGeometry x="80" y="815" width="160" height="100" as="geometry" />
        </mxCell>
        <mxCell id="ld2Q0Rl9ifkete67yDMp-20" style="edgeStyle=orthogonalEdgeStyle;rounded=0;orthogonalLoop=1;jettySize=auto;html=1;entryX=0.5;entryY=0;entryDx=0;entryDy=0;" parent="WIyWlLk6GJQsqaUBKTNV-1" source="ld2Q0Rl9ifkete67yDMp-17" target="ld2Q0Rl9ifkete67yDMp-18" edge="1">
          <mxGeometry relative="1" as="geometry" />
        </mxCell>
        <mxCell id="ld2Q0Rl9ifkete67yDMp-17" value="&lt;b&gt;Ejecución de LMILL&lt;br&gt;&lt;/b&gt;Se encarga de hacer una carga de la pieza en la máquina CNC." style="whiteSpace=wrap;html=1;rounded=1;glass=0;strokeWidth=1;shadow=0;fillColor=#ffe6cc;strokeColor=#d79b00;" parent="WIyWlLk6GJQsqaUBKTNV-1" vertex="1">
          <mxGeometry x="310" y="550" width="160" height="100" as="geometry" />
        </mxCell>
        <mxCell id="ld2Q0Rl9ifkete67yDMp-21" style="edgeStyle=orthogonalEdgeStyle;rounded=0;orthogonalLoop=1;jettySize=auto;html=1;exitX=0.5;exitY=1;exitDx=0;exitDy=0;entryX=0.5;entryY=0;entryDx=0;entryDy=0;" parent="WIyWlLk6GJQsqaUBKTNV-1" source="ld2Q0Rl9ifkete67yDMp-18" target="ld2Q0Rl9ifkete67yDMp-19" edge="1">
          <mxGeometry relative="1" as="geometry" />
        </mxCell>
        <mxCell id="ld2Q0Rl9ifkete67yDMp-18" value="Se crea la parte según el código en &lt;b&gt;CreatePart&lt;/b&gt;." style="whiteSpace=wrap;html=1;rounded=1;glass=0;strokeWidth=1;shadow=0;fillColor=#fff2cc;strokeColor=#d6b656;" parent="WIyWlLk6GJQsqaUBKTNV-1" vertex="1">
          <mxGeometry x="310" y="700" width="160" height="80" as="geometry" />
        </mxCell>
        <mxCell id="ld2Q0Rl9ifkete67yDMp-22" value="Inicio de Ensamble&amp;nbsp;" style="edgeStyle=orthogonalEdgeStyle;rounded=0;orthogonalLoop=1;jettySize=auto;html=1;exitX=1;exitY=0.5;exitDx=0;exitDy=0;entryX=0;entryY=0.5;entryDx=0;entryDy=0;" parent="WIyWlLk6GJQsqaUBKTNV-1" source="ld2Q0Rl9ifkete67yDMp-19" target="B-otEjHW6JDtHvaltUW4-16" edge="1">
          <mxGeometry relative="1" as="geometry">
            <Array as="points">
              <mxPoint x="560" y="880" />
              <mxPoint x="560" y="600" />
            </Array>
          </mxGeometry>
        </mxCell>
        <mxCell id="ld2Q0Rl9ifkete67yDMp-19" value="&lt;b&gt;Ejecución de ULMILL&lt;br&gt;&lt;/b&gt;Se encarga de hacer una descarga de la pieza en la máquina CNC. Lo coloca en su posición original" style="whiteSpace=wrap;html=1;rounded=1;glass=0;strokeWidth=1;shadow=0;fillColor=#ffe6cc;strokeColor=#d79b00;" parent="WIyWlLk6GJQsqaUBKTNV-1" vertex="1">
          <mxGeometry x="310" y="830" width="160" height="100" as="geometry" />
        </mxCell>
        <mxCell id="ld2Q0Rl9ifkete67yDMp-28" style="edgeStyle=orthogonalEdgeStyle;rounded=0;orthogonalLoop=1;jettySize=auto;html=1;exitX=0.5;exitY=1;exitDx=0;exitDy=0;entryX=0.5;entryY=0;entryDx=0;entryDy=0;" parent="WIyWlLk6GJQsqaUBKTNV-1" source="ld2Q0Rl9ifkete67yDMp-23" target="ld2Q0Rl9ifkete67yDMp-25" edge="1">
          <mxGeometry relative="1" as="geometry" />
        </mxCell>
        <mxCell id="ld2Q0Rl9ifkete67yDMp-23" value="Regresa a la posición intermedia y luego se mueve para tomar el cilindro (&lt;b&gt;P7&lt;/b&gt;).&amp;nbsp;" style="whiteSpace=wrap;html=1;rounded=1;glass=0;strokeWidth=1;shadow=0;fillColor=#dae8fc;strokeColor=#6c8ebf;" parent="WIyWlLk6GJQsqaUBKTNV-1" vertex="1">
          <mxGeometry x="650" y="680" width="190" height="90" as="geometry" />
        </mxCell>
        <mxCell id="ld2Q0Rl9ifkete67yDMp-25" value="Como la pieza rectangular tiene 3 agujeros, se deposita el cilindro maquinado en la posición central (&lt;b&gt;P10&lt;/b&gt;)." style="whiteSpace=wrap;html=1;rounded=1;glass=0;strokeWidth=1;shadow=0;fillColor=#dae8fc;strokeColor=#6c8ebf;" parent="WIyWlLk6GJQsqaUBKTNV-1" vertex="1">
          <mxGeometry x="650" y="800" width="190" height="90" as="geometry" />
        </mxCell>
        <mxCell id="9t7XOVwsSKRrDLuDX60Q-1" style="edgeStyle=orthogonalEdgeStyle;rounded=0;orthogonalLoop=1;jettySize=auto;html=1;exitX=0.5;exitY=1;exitDx=0;exitDy=0;entryX=0.5;entryY=0;entryDx=0;entryDy=0;" edge="1" parent="WIyWlLk6GJQsqaUBKTNV-1" source="ld2Q0Rl9ifkete67yDMp-26" target="B-otEjHW6JDtHvaltUW4-0">
          <mxGeometry relative="1" as="geometry" />
        </mxCell>
        <mxCell id="ld2Q0Rl9ifkete67yDMp-26" value="Ejecución de la Simulación" style="whiteSpace=wrap;html=1;rounded=1;glass=0;strokeWidth=1;shadow=0;fillColor=#dae8fc;strokeColor=#6c8ebf;" parent="WIyWlLk6GJQsqaUBKTNV-1" vertex="1">
          <mxGeometry x="480" y="250" width="190" height="90" as="geometry" />
        </mxCell>
      </root>
    </mxGraphModel>
  </diagram>
</mxfile>
